<svg width="375" height="98" viewBox="0 0 375 98" fill="none" xmlns="http://www.w3.org/2000/svg">
<path d="M-48 78.6L-31.6333 68.9C-15.2667 59.2 17.4667 39.8 50.2 23.6131C82.9333 7.66874 115.667 -5.66876 148.4 4.21311C181.133 13.7312 213.867 46.4687 246.6 55.9869C279.333 65.8687 312.067 52.5312 344.8 55.9869C377.533 59.2 410.267 78.6 426.633 88.3L443 98H426.633C410.267 98 377.533 98 344.8 98C312.067 98 279.333 98 246.6 98C213.867 98 181.133 98 148.4 98C115.667 98 82.9333 98 50.2 98C17.4667 98 -15.2667 98 -31.6333 98H-48V78.6Z" fill="url(#paint0_linear)"/>
<defs>
<linearGradient id="paint0_linear" x1="-48" y1="49.0001" x2="443" y2="49" gradientUnits="userSpaceOnUse">
<stop stop-color="#37B4AA"/>
<stop offset="1" stop-color="#1F80EA"/>
</linearGradient>
</defs>
</svg>
